<?xml version="1.0" standalone="no"?>
<!DOCTYPE svg PUBLIC "-//W3C//DTD SVG 20010904//EN"
 "http://www.w3.org/TR/2001/REC-SVG-20010904/DTD/svg10.dtd">
<svg version="1.0" xmlns="http://www.w3.org/2000/svg"
 width="509.000000pt" height="493.000000pt" viewBox="0 0 509.000000 493.000000"
 preserveAspectRatio="xMidYMid meet">

<g transform="translate(0.000000,493.000000) scale(0.100000,-0.100000)"
fill="#000000" stroke="none">
<path d="M2545 3783 c-90 -13 -141 -42 -604 -348 -263 -173 -496 -331 -518
-350 -23 -19 -52 -56 -65 -83 l-23 -47 3 -475 c4 -529 3 -521 73 -586 31 -29
307 -212 863 -573 l210 -136 75 0 76 0 330 219 c182 121 420 279 530 351 110
73 210 143 221 156 57 64 56 53 58 568 1 470 1 476 -21 516 -33 62 -71 92
-313 251 -124 81 -344 226 -490 322 -252 167 -347 224 -366 221 -5 -1 -22 -4
-39 -6z m90 -82 c47 -28 945 -618 994 -653 82 -58 81 -49 81 -573 0 -427 -1
-463 -18 -494 -15 -27 -126 -106 -551 -388 -501 -332 -535 -353 -578 -353 -24
0 -54 5 -66 12 -35 18 -418 268 -990 645 -113 75 -107 43 -107 583 0 516 -2
501 71 563 59 51 993 667 1027 678 36 11 100 2 137 -20z"/>
<path d="M2485 3435 c-16 -9 -210 -136 -430 -283 -347 -232 -400 -271 -403
-294 -3 -25 23 -44 428 -313 395 -261 435 -285 474 -285 39 0 77 23 456 275
227 151 421 282 431 291 40 36 27 48 -233 222 -504 337 -599 395 -648 399 -28
2 -56 -2 -75 -12z"/>
<path d="M1595 2567 c-3 -7 -4 -127 -3 -267 l3 -255 439 -292 c242 -161 443
-290 448 -287 4 3 8 111 8 240 0 271 -4 286 -88 350 -141 108 -760 524 -780
524 -12 0 -25 -6 -27 -13z"/>
<path d="M3040 2265 c-296 -201 -380 -263 -397 -292 -22 -36 -23 -48 -23 -270
0 -133 4 -234 9 -238 5 -3 144 84 308 193 164 109 355 235 426 281 l127 84 0
238 c0 225 -1 239 -19 249 -11 5 -28 10 -38 10 -10 0 -187 -115 -393 -255z"/>
</g>
</svg>
