<?xml version="1.0" standalone="no"?>
<!DOCTYPE svg PUBLIC "-//W3C//DTD SVG 20010904//EN"
 "http://www.w3.org/TR/2001/REC-SVG-20010904/DTD/svg10.dtd">
<svg version="1.0" xmlns="http://www.w3.org/2000/svg"
 width="280.000000pt" height="280.000000pt" viewBox="0 0 280.000000 280.000000"
 preserveAspectRatio="xMidYMid meet">

<g transform="translate(0.000000,280.000000) scale(0.100000,-0.100000)"
fill="#000000" stroke="none">
<path d="M0 1400 l0 -1400 1400 0 1400 0 0 1400 0 1400 -1400 0 -1400 0 0
-1400z m1540 628 c124 -62 125 -63 125 -97 0 -34 -2 -36 -115 -92 -63 -32
-127 -58 -143 -58 -15 -1 -84 26 -153 59 l-125 59 3 33 c3 31 9 36 128 95 69
34 132 62 140 62 9 1 72 -27 140 -61z m-347 -311 c103 -49 198 -89 210 -89 12
0 114 44 226 97 241 116 226 116 302 -16 44 -75 48 -89 39 -110 -20 -42 -523
-362 -568 -362 -28 0 -181 91 -410 242 -164 108 -165 109 -159 146 7 43 87
175 111 185 29 12 37 9 249 -93z m48 -543 c75 -46 147 -84 161 -84 13 0 85 38
160 84 74 46 145 87 157 91 30 9 63 -14 95 -69 47 -80 44 -84 -126 -247 -231
-220 -254 -239 -289 -239 -24 0 -48 16 -117 82 -246 232 -322 310 -322 330 0
31 59 128 84 138 31 13 48 5 197 -86z"/>
</g>
</svg>
